<?xml version="1.0" encoding="utf-8"?>
<!-- Svg Vector Icons : http://www.onlinewebfonts.com/icon -->
<!DOCTYPE svg PUBLIC "-//W3C//DTD SVG 1.1//EN" "http://www.w3.org/Graphics/SVG/1.1/DTD/svg11.dtd">
<svg version="1.1" xmlns="http://www.w3.org/2000/svg" xmlns:xlink="http://www.w3.org/1999/xlink" x="0px" y="0px" viewBox="0 0 256 256" enable-background="new 0 0 256 256" xml:space="preserve">
<metadata> Svg Vector Icons : http://www.onlinewebfonts.com/icon </metadata>
<g><g><g><path fill="#000000" d="M243.8,128.3c1.2,0,2.2-1,2.2-2.2c0-1.2-1-2.2-2.2-2.2h-12.2v-6c3.9,0.9,8,1.3,12.2,1.3c1.2,0,2.2-1,2.2-2.2s-1-2.2-2.2-2.2c-28.4,0-51.5-23.1-51.5-51.5c0-1.2-1-2.2-2.2-2.2h-2V54c0-1.2-1-2.2-2.2-2.2c-1.2,0-2.2,1-2.2,2.2v7.3h-2c-1.2,0-2.2,1-2.2,2.2c0,28.4-23.1,51.5-51.5,51.5c-28.4,0-51.5-23.1-51.5-51.5c0-1.2-1-2.2-2.2-2.2h-2V54c0-1.2-1-2.2-2.2-2.2c-1.2,0-2.2,1-2.2,2.2v7.3h-2c-1.2,0-2.2,1-2.2,2.2c0,28.4-23.1,51.5-51.5,51.5c-1.2,0-2.2,1-2.2,2.2s1,2.2,2.2,2.2c4.2,0,8.3-0.5,12.3-1.3v6H12.2c-1.2,0-2.2,1-2.2,2.2c0,1.2,1,2.2,2.2,2.2h51.5v4.6H12.2c-1.2,0-2.2,1-2.2,2.2c0,1.2,1,2.2,2.2,2.2h51.5v28.3h-1.5c-1.2,0-2.2,1-2.2,2.2v15.6c-2,0-4-0.7-5.5-2.1c-4.6-4.4-11.9-4.4-16.6,0c-3,2.8-7.7,2.8-10.7,0c-0.9-0.8-2.2-0.8-3.1,0.1c-0.8,0.9-0.8,2.2,0.1,3.1c4.6,4.4,11.9,4.4,16.6,0c3-2.8,7.7-2.8,10.7,0c4.6,4.4,11.9,4.4,16.6,0c3-2.8,7.7-2.8,10.7,0c4.6,4.4,11.9,4.4,16.6,0c3-2.8,7.7-2.8,10.7,0c4.6,4.4,11.9,4.4,16.6,0c3-2.8,7.7-2.8,10.7,0c4.6,4.4,11.9,4.4,16.6,0c3-2.8,7.7-2.8,10.7,0c4.6,4.4,11.9,4.4,16.6,0c3-2.8,7.7-2.8,10.7,0c4.6,4.4,11.9,4.4,16.6,0c3-2.8,7.7-2.8,10.7,0c2.3,2.2,5.3,3.3,8.3,3.3s6-1.1,8.3-3.3c0.9-0.8,0.9-2.2,0.1-3.1c-0.8-0.9-2.2-0.9-3.1-0.1c-3,2.8-7.7,2.8-10.7,0c-4.6-4.4-11.9-4.4-16.6,0c-1.5,1.4-3.5,2.1-5.5,2.1v-15.6c0-1.2-1-2.2-2.2-2.2h-1.6v-28.3h51.5c1.2,0,2.2-1,2.2-2.2c0-1.2-1-2.2-2.2-2.2h-51.5v-4.6L243.8,128.3L243.8,128.3z M227.2,124h-10.1v-11.4c3.2,1.7,6.5,3.2,10.1,4.3V124z M212.8,110v14h-10.1v-22.7C205.8,104.6,209.1,107.5,212.8,110z M198.4,96v28h-6.1V85.1C193.9,89,196,92.6,198.4,96z M179.5,132.9H76.5v-4.6h103.1V132.9z M68,65.7h4.1v99.9H68V65.7z M144.6,124v-7.1c3.5-1.1,6.9-2.5,10.1-4.3V124H144.6z M140.3,124h-10.1v-4.6c3.4-0.1,6.8-0.6,10.1-1.3V124z M125.8,124h-10.1v-6c3.3,0.7,6.6,1.2,10.1,1.3V124z M111.4,124h-10.1v-11.4c3.2,1.7,6.6,3.2,10.1,4.3V124z M183.9,65.7h4.1v99.9h-4.1V65.7z M179.5,124h-6.1V96c2.4-3.4,4.5-7,6.1-10.9V124z M169.1,101.3V124H159v-14C162.7,107.5,166.1,104.6,169.1,101.3z M97,110v14H86.9v-22.7C89.9,104.6,93.3,107.5,97,110z M82.6,96v28h-6.1V85.1C78.1,89,80.1,92.6,82.6,96z M53.3,101.3V124H43.2v-14C46.9,107.5,50.3,104.6,53.3,101.3z M28.8,116.9c3.5-1.1,6.9-2.5,10.1-4.3V124H28.8V116.9z M57.6,124V96c2.4-3.4,4.5-7,6.1-10.9V124H57.6L57.6,124z M65.2,181.2c-0.3,0.2-0.5,0.5-0.8,0.7v-11.9h11.5v8.2C72.1,177.4,68.1,178.5,65.2,181.2z M190.8,181.2c-2.9-2.7-6.9-3.8-10.6-3v-8.2h11.5v11.9C191.4,181.7,191.1,181.4,190.8,181.2z M178,165.6c-1.2,0-2.2,1-2.2,2.2v12.2c-0.6,0.4-1.1,0.8-1.6,1.3c-3,2.8-7.7,2.8-10.7,0c-4.6-4.4-11.9-4.4-16.6,0c-3,2.8-7.7,2.8-10.7,0c-4.6-4.4-11.9-4.4-16.6,0c-3,2.8-7.7,2.8-10.7,0c-4.6-4.4-11.9-4.4-16.6,0c-3,2.8-7.7,2.8-10.7,0c-0.5-0.5-1.1-0.9-1.6-1.3v-12.2c0-1.2-1-2.2-2.2-2.2h-1.5v-28.3h103.1v28.3H178L178,165.6z"/><path fill="#000000" d="M228.7,197.7c-3,2.8-7.7,2.8-10.7,0c-4.6-4.4-11.9-4.4-16.6,0c-3,2.8-7.7,2.8-10.7,0c-4.6-4.4-11.9-4.4-16.6,0c-3,2.8-7.7,2.8-10.7,0c-4.6-4.4-11.9-4.4-16.6,0c-3,2.8-7.7,2.8-10.7,0c-4.6-4.4-11.9-4.4-16.6,0c-3,2.8-7.7,2.8-10.7,0c-4.6-4.4-11.9-4.4-16.6,0c-3,2.8-7.7,2.8-10.7,0c-4.6-4.4-11.9-4.4-16.6,0c-3,2.8-7.7,2.8-10.7,0c-4.6-4.4-11.9-4.4-16.6,0c-3,2.8-7.7,2.8-10.7,0c-0.9-0.8-2.2-0.8-3.1,0.1c-0.8,0.9-0.8,2.2,0.1,3.1c4.6,4.4,11.9,4.4,16.6,0c3-2.8,7.7-2.8,10.7,0c4.6,4.4,11.9,4.4,16.6,0c3-2.8,7.7-2.8,10.7,0c4.6,4.4,11.9,4.4,16.6,0c3-2.8,7.7-2.8,10.7,0c4.6,4.4,11.9,4.4,16.6,0c3-2.8,7.7-2.8,10.7,0c4.6,4.4,11.9,4.4,16.6,0c3-2.8,7.7-2.8,10.7,0c4.6,4.4,11.9,4.4,16.6,0c3-2.8,7.7-2.8,10.7,0c4.6,4.4,11.9,4.4,16.6,0c3-2.8,7.7-2.8,10.7,0c2.3,2.2,5.3,3.3,8.3,3.3c3,0,6-1.1,8.3-3.3c0.9-0.8,0.9-2.2,0.1-3.1S229.6,196.9,228.7,197.7z"/></g><g></g><g></g><g></g><g></g><g></g><g></g><g></g><g></g><g></g><g></g><g></g><g></g><g></g><g></g><g></g></g></g>
</svg>